# xmcd CD database file
#
# Track frame offsets:
#	150
#	11849
#	26863
#	38966
#	53541
#	71498
#	89360
#	110241
#	126245
#	141374
#	160794
#	178576
#	195838
#	209737
#
# Disc length: 2957 seconds
#
# Revision: 0
# Processed by: cddbd v1.5.2PL0 Copyright (c) Steve Scherf et al.
# Submitted via: CDex 1.81
#
DISCID=cb0b8b0e
DTITLE=Stickybon - Bricks of Life
DYEAR=2009
DGENRE=Country
TTITLE0=Liar, Liar
TTITLE1=The Trouble With Love
TTITLE2=Blame It On Me
TTITLE3=She Don't
TTITLE4=The Difference You Make
TTITLE5=What Do They Know
TTITLE6=Summer Love
TTITLE7=Let Me Leave You While I Can
TTITLE8=Whatcha Wanna Be
TTITLE9=Prisoner Of Love
TTITLE10=Where Have All The Cowboys Gone
TTITLE11=Slow It Down
TTITLE12=How Do I Get Out Of This Dream
TTITLE13=Too Loud To Love
EXTD=YEAR: 2009
EXTT0=
EXTT1=
EXTT2=
EXTT3=
EXTT4=
EXTT5=
EXTT6=
EXTT7=
EXTT8=
EXTT9=
EXTT10=
EXTT11=
EXTT12=
EXTT13=
PLAYORDER=
